<svg viewBox="0 0 800 800" xmlns="http://www.w3.org/2000/svg"><path d="M607.138291117858,284.6805013387987 L620.5032864114219,276.96935847025395 M620.5987742933648,248.72374402979224 L620.5032864114219,276.96935847025395 M607.2264107033734,256.4305578726623 L620.5987742933648,248.72374402979224 M607.2264107033734,256.4305578726623 L607.138291117858,284.6805013387987 M607.138291117858,284.6805013387987 L609.3040101364932,282.16900189443874 M609.3040101364932,282.16900189443874 L612.3526013247458,279.98301599893927 M612.3526013247458,279.98301599893927 L616.1437865019484,278.22288245603823 M616.1437865019484,278.22288245603823 L620.5032864114219,276.96935847025395 M607.2264107033734,256.4305578726623 L609.3933195691566,253.92046809596525 M609.3933195691566,253.92046809596525 L612.443590097881,251.73570938618462 M612.443590097881,251.73570938618462 L616.2368667939238,249.9765641122313 M616.2368667939238,249.9765641122313 L620.5987742933648,248.72374402979224" stroke="black"  stroke-width="4"  fill="red"/>
<path d="M202.55934857735278,365.5860720214121 L301.9942199754791,308.55750950314354 M187.56737843194506,526.7584953927783 L173.82405745173776,515.7020933917688 M173.82405745173776,515.7020933917688 L162.33359765118684,503.82137616157723 M162.33359765118684,503.82137616157723 L153.2398440488342,491.2694768610672 M153.2398440488342,491.2694768610672 L146.65548321998114,478.2077091659144 M146.65548321998114,478.2077091659144 L142.66066497604072,464.8034464038802 M142.66066497604072,464.8034464038802 L141.30218466257952,451.22794050556826 M141.30218466257952,451.22794050556826 L142.59313900328073,437.6540418712295 M142.59313900328073,437.6540418712295 L146.51293564015435,424.2540884708424 M146.51293564015435,424.2540884708424 L153.0077870173996,411.19761254172107 M153.0077870173996,411.19761254172107 L161.99153765787693,398.64935134092 M161.99153765787693,398.64935134092 L173.3470089207412,386.7670962908418 M173.3470089207412,386.7670962908418 L186.92763789983306,375.69986279353924 M186.92763789983306,375.69986279353924 L202.55934857735278,365.5860720214121 M184.3441644331017,528.6181790735457 L187.56737843194506,526.7584953927783 M184.3441644331017,528.6181790735457 L174.55154549559063,522.9002399099552 M174.55154549559063,522.9002399099552 L128.9751158198738,549.1845990084896 M154.01928255673477,337.33316766662136 L136.04927466092306,348.7081780953638 M136.04927466092306,348.7081780953638 L120.03087415463295,361.02903243577146 M120.03087415463295,361.02903243577146 L106.11347053347549,374.18440491279097 M106.11347053347549,374.18440491279097 L94.42784271485306,388.0550368603591 M94.42784271485306,388.0550368603591 L85.08488222482822,402.5147742924012 M85.08488222482822,402.5147742924012 L78.17444765964638,417.4316945643324 M78.17444765964638,417.4316945643324 L73.76447845764261,432.669212438397 M73.76447845764261,432.669212438397 L71.90012909711425,448.08728733911846 M71.90012909711425,448.08728733911846 L72.60321058554109,463.543767281159 M72.60321058554109,463.543767281159 L75.87188599120009,478.89558403215466 M75.87188599120009,478.89558403215466 L81.68046411003525,494.00011975812964 M81.68046411003525,494.00011975812964 L89.97941403308948,508.7165938562426 M89.97941403308948,508.7165938562426 L100.69582220059095,522.9073300217456 M100.69582220059095,522.9073300217456 L113.73373771508665,536.4391436064514 M113.73373771508665,536.4391436064514 L128.9751158198738,549.1845990084896 M253.2757100938242,280.5323370480237 L154.01928255673477,337.33316766662136 M602.925290128743,261.7943167924208 L579.6876062706474,253.67430211454297 M579.6876062706474,253.67430211454297 L555.1925801140428,246.90792799309622 M555.1925801140428,246.90792799309622 L529.6747521869715,241.55866004624556 M529.6747521869715,241.55866004624556 L503.3779714872719,237.67655076943385 M503.3779714872719,237.67655076943385 L476.5530567181547,235.29791555760622 M476.5530567181547,235.29791555760622 L449.4555999348694,234.44498957853966 M449.4555999348694,234.44498957853966 L422.34361251912986,235.12572571769854 M422.34361251912986,235.12572571769854 L395.4752784169631,237.3337825835716 M395.4752784169631,237.3337825835716 L369.10653145372913,241.04850213868443 M369.10653145372913,241.04850213868443 L343.4888884406856,246.23517858203115 M343.4888884406856,246.23517858203115 L318.86704671544203,252.84524678693532 M318.86704671544203,252.84524678693532 L295.47672022026984,260.81673388963344 M295.47672022026984,260.81673388963344 L273.5425049446691,270.0748055009047 M273.5425049446691,270.0748055009047 L253.2757100938242,280.5323370480237 M602.925290128743,261.7943167924208 L555.3075415757985,289.2406927776917 M555.3075415757985,289.2406927776917 L565.3184468707839,294.9828486229313 M301.9942199754791,308.55750950314354 L319.93967788964727,299.4602131459444 M319.93967788964727,299.4602131459444 L339.5666988889567,291.61335125988006 M339.5666988889567,291.61335125988006 L360.61611028053534,285.11877604088676 M360.61611028053534,285.11877604088676 L382.81073192167617,280.0606299099048 M382.81073192167617,280.0606299099048 L405.8589455767053,276.50435849880364 M405.8589455767053,276.50435849880364 L429.4584104543842,274.4959377097194 M429.4584104543842,274.4959377097194 L453.29984106115165,274.0612994267392 M453.29984106115165,274.0612994267392 L477.07093896949743,275.2060669933512 M477.07093896949743,275.2060669933512 L500.46029380359556,277.9154508139792 M500.46029380359556,277.9154508139792 L523.1612458919856,282.1544451993283 M523.1612458919856,282.1544451993283 L544.8758239613144,287.86823438328787 M544.8758239613144,287.86823438328787 L565.3184468707839,294.9828486229313 M202.55934857735278,365.5860720214121 L202.42310514590852,337.2908646826535 M301.9942199754791,308.55750950314354 L301.913369983664,280.2941779695305 M202.42310514590852,337.2908646826535 L301.913369983664,280.2941779695305 M187.56737843194506,526.7584953927783 L187.42189414771318,498.3739688274754 M187.42189414771318,498.3739688274754 L173.67095993758426,487.32365790178983 M173.67095993758426,487.32365790178983 L162.17415643993,475.4494918149985 M162.17415643993,475.4494918149985 L153.07540681956397,462.904520444706 M153.07540681956397,462.904520444706 L146.4874578656911,449.84996939674124 M146.4874578656911,449.84996939674124 L142.4905010231235,436.4531202503803 M142.4905010231235,436.4531202503803 L141.13135437661253,422.8851306691563 M141.13135437661253,422.8851306691563 L142.42311846001405,409.318755501736 M142.42311846001405,409.318755501736 L146.34518596431883,395.9262370427765 M146.34518596431883,395.9262370427765 L152.84373605918202,382.8770130130442 M152.84373605918202,382.8770130130442 L161.83256228184052,370.33572844559006 M161.83256228184052,370.33572844559006 L173.19441818024535,358.46008607299785 M173.19441818024535,358.46008607299785 L186.7826572362316,347.39901722077036 M186.7826572362316,347.39901722077036 L202.42310514590852,337.2908646826535 M184.1968683925815,500.23262851512123 L187.42189414771318,498.3739688274754 M184.3441644331017,528.6181790735457 L184.1968683925815,500.23262851512123 M174.39881132974432,494.5178382878177 L184.1968683925815,500.23262851512123 M174.39881132974432,494.5178382878177 L174.55154549559063,522.9002399099552 M174.39881132974432,494.5178382878177 L128.79673543934132,520.7877340742148 M128.79673543934132,520.7877340742148 L128.9751158198738,549.1845990084896 M153.85626838593208,309.0537343990114 L135.87621616679348,320.4223897799792 M135.87621616679348,320.4223897799792 L119.84883903941733,332.73636701302445 M119.84883903941733,332.73636701302445 L105.92361089088928,345.8844038929007 M105.92361089088928,345.8844038929007 L94.23138528943213,359.74730958395793 M94.23138528943213,359.74730958395793 L84.88311790422364,374.1990015512762 M84.88311790422364,374.1990015512762 L77.96872025210325,389.10763153980173 M77.96872025210325,389.10763153980173 L73.55617288145555,404.33669097792637 M73.55617288145555,404.33669097792637 L71.69065897816853,419.746217525785 M71.69065897816853,419.746217525785 L72.39400542191265,435.19413823265836 M72.39400542191265,435.19413823265836 L75.66437802086779,450.5374640253446 M75.66437802086779,450.5374640253446 L81.47607493271892,465.63365559805976 M81.47607493271892,465.63365559805976 L89.77954111139434,480.3420094928503 M89.77954111139434,480.3420094928503 L100.50182549519661,494.52492449411676 M100.50182549519661,494.52492449411676 L113.54692640188648,508.049288261011 M113.54692640188648,508.049288261011 L128.79673543934132,520.7877340742148 M154.01928255673477,337.33316766662136 L153.85626838593208,309.0537343990114 M253.2757100938242,280.5323370480237 L253.16798874593562,252.2847220335438 M253.16798874593562,252.2847220335438 L153.85626838593208,309.0537343990114 M603.0110003980394,233.55722917741127 L579.7604430178824,225.44178124606833 M579.7604430178824,225.44178124606833 L555.2518599033127,218.6792147727594 M555.2518599033127,218.6792147727594 L529.7199196746813,213.3329584384176 M529.7199196746813,213.3329584384176 L503.40860409641505,209.45303555255072 M503.40860409641505,209.45303555255072 L476.5688681190244,207.07574030498975 M476.5688681190244,207.07574030498975 L449.4564424248368,206.22329486760376 M449.4564424248368,206.22329486760376 L422.3294782243856,206.90364747492347 M422.3294782243856,206.90364747492347 L395.4462993806241,209.11046044417546 M395.4462993806241,209.11046044417546 L369.0629785134382,212.82308781255367 M369.0629785134382,212.82308781255367 L343.4311690322524,218.0068440477901 M343.4311690322524,218.0068440477901 L318.7957014632502,224.61319234616766 M318.7957014632502,224.61319234616766 L295.39241843228206,232.5801959209771 M295.39241843228206,232.5801959209771 L273.4460390104688,241.83306385044534 M273.4460390104688,241.83306385044534 L253.16798874593562,252.2847220335438 M603.0110003980394,233.55722917741127 L602.925290128743,261.7943167924208 M555.3075415757985,289.2406927776917 L555.366984175794,260.98819044675935 M603.0110003980394,233.55722917741127 L555.366984175794,260.98819044675935 M565.3834461018412,266.7271254809032 L565.3184468707839,294.9828486229313 M555.366984175794,260.98819044675935 L565.3834461018412,266.7271254809032 M301.913369983664,280.2941779695305 L319.86879527533637,271.2019796203929 M319.86879527533637,271.2019796203929 L339.50670449481726,263.35951791556835 M339.50670449481726,263.35951791556835 L360.5677820477055,256.8685866058162 M360.5677820477055,256.8685866058162 L382.774695544083,251.81327972208084 M382.774695544083,251.81327972208084 L405.83566704286307,248.25900519166873 M405.83566704286307,248.25900519166873 L429.44819052905,246.25171239404247 M429.44819052905,246.25171239404247 L453.30281171914714,245.81731824057863 M453.30281171914714,245.81731824057863 L477.08706185207507,246.96144282691256 M477.08706185207507,246.96144282691256 L500.4893606737898,249.66930509886532 M500.4893606737898,249.66930509886532 L523.2028810696345,253.90591957211564 M523.2028810696345,253.90591957211564 L544.9294887895835,259.6165020858661 M544.9294887895835,259.6165020858661 L565.3834461018412,266.7271254809032" stroke="black"  stroke-width="4"  fill="red"/>
<path d="M676.6941347391455,219.2747204926301 L676.820425843151,191.061578070812 M555.3075415757985,289.2406927776917 L555.366984175794,260.98819044675935 M676.6941347391455,219.2747204926301 L555.3075415757985,289.2406927776917 M676.820425843151,191.061578070812 L555.366984175794,260.98819044675935 M628.8194566419377,331.4063971124664 L628.9197610822716,303.1302772797829 M555.3075415757985,289.2406927776917 L628.8194566419377,331.4063971124664 M555.366984175794,260.98819044675935 L628.9197610822716,303.1302772797829 M750.2041708421807,261.20790220193277 L750.3713206662785,232.9711442937421 M628.8194566419377,331.4063971124664 L750.2041708421807,261.20790220193277 M628.9197610822716,303.1302772797829 L750.3713206662785,232.9711442937421 M750.2041708421807,261.20790220193277 L676.6941347391455,219.2747204926301 M750.3713206662785,232.9711442937421 L676.820425843151,191.061578070812 M644.5539723460524,279.9830180047543 L644.6627808767148,251.7357113908734 M612.4727312551779,298.50513118450806 L612.5638530680067,270.247433084074 M644.5539723460524,279.9830180047543 L647.9588676715127,282.4668672908785 M647.9588676715127,282.4668672908785 L650.2348786490882,285.3448607895276 M650.2348786490882,285.3448607895276 L651.2494354103062,288.44993402840663 M651.2494354103062,288.44993402840663 L650.9431299913135,291.6017302844978 M650.9431299913135,291.6017302844978 L649.333267027099,294.6170542002563 M649.333267027099,294.6170542002563 L646.5130135565307,297.3205058993368 M646.5130135565307,297.3205058993368 L642.6460697714376,299.5547134074937 M642.6460697714376,299.5547134074937 L637.9571301892054,301.18957650376507 M637.9571301892054,301.18957650376507 L632.718941813227,302.129824165953 M632.718941813227,302.129824165953 L627.236329895595,302.32065215188067 M627.236329895595,302.32065215188067 L621.8283869303145,301.7509475752603 M621.8283869303145,301.7509475752603 L616.8098531894518,300.45391588091906 M616.8098531894518,300.45391588091906 L612.4727312551779,298.50513118450806 M644.6627808767148,251.7357113908734 L648.0695712714312,254.2181662905587 M648.0695712714312,254.2181662905587 L650.346854598942,257.09454447424184 M650.346854598942,257.09454447424184 L651.3619867076459,260.19787535169775 M651.3619867076459,260.19787535169775 L651.0555257016892,263.34790345871943 M651.0555257016892,263.34790345871943 L649.444784718266,266.36153619170176 M649.444784718266,266.36153619170176 L646.6229813852608,269.06347196278824 M646.6229813852608,269.06347196278824 L642.7539057282665,271.2964269066489 M642.7539057282665,271.2964269066489 L638.0623761376876,272.9303735872205 M638.0623761376876,272.9303735872205 L632.8212903951103,273.8700942503189 M632.8212903951103,273.8700942503189 L627.3356425773866,274.06081528384294 M627.3356425773866,274.06081528384294 L621.9247021352651,273.4914300113965 M621.9247021352651,273.4914300113965 L616.9033840430293,272.1951253214414 M616.9033840430293,272.1951253214414 L612.5638530680067,270.247433084074 M612.4727312551779,298.50513118450806 L609.0691609299611,296.01813868601636 M609.0691609299611,296.01813868601636 L606.7968662207268,293.1377220382216 M606.7968662207268,293.1377220382216 L605.7875656130298,290.03150084142396 M605.7875656130298,290.03150084142396 L606.0994629539009,286.88009479629847 M606.0994629539009,286.88009479629847 L607.7139725797499,283.8666098701228 M607.7139725797499,283.8666098701228 L610.5368629475736,281.16602465238986 M610.5368629475736,281.16602465238986 L614.4038297849431,278.9350544240835 M614.4038297849431,278.9350544240835 L619.090173293215,277.3030578129553 M619.090173293215,277.3030578129553 L624.323741196687,276.3646491446351 M624.323741196687,276.3646491446351 L629.8007667480863,276.1742113622566 M629.8007667480863,276.1742113622566 L635.2034372103394,276.74276798177976 M635.2034372103394,276.74276798177976 L640.2182201742971,278.03737653686784 M640.2182201742971,278.03737653686784 L644.5539723460524,279.9830180047543 M612.5638530680067,270.247433084074 L609.1583891285431,267.76183499639586 M609.1583891285431,267.76183499639586 L606.8848261755081,264.883033682358 M606.8848261755081,264.883033682358 L605.8749560368851,261.7785548558856 M605.8749560368851,261.7785548558856 L606.1870151592072,258.6289169568036 M606.1870151592072,258.6289169568036 L607.8024079576119,255.61712319914312 M607.8024079576119,255.61712319914312 L610.6268511194985,252.91805388717557 M610.6268511194985,252.91805388717557 L614.4959498670753,250.6883361980618 M614.4959498670753,250.6883361980618 L619.1848805199036,249.05725598040527 M619.1848805199036,249.05725598040527 L624.4213406801452,248.11937429691454 M624.4213406801452,248.11937429691454 L629.90139594638,247.9290434639139 M629.90139594638,247.9290434639139 L635.3070580417461,248.49728078816474 M635.3070580417461,248.49728078816474 L640.3246211936003,249.79116235765645 M640.3246211936003,249.79116235765645 L644.6627808767148,251.7357113908734" stroke="black"  stroke-width="4"  fill="red"/>
<path d="M199.04129940309033,537.1998796557632 L174.55154549559063,522.9002399099552 M74.7864993245907,608.938421929188 L50.297756689021696,594.5585779496591 M199.04129940309033,537.1998796557632 L74.7864993245907,608.938421929188 M174.55154549559063,522.9002399099552 L50.297756689021696,594.5585779496591 M74.15827563703368,523.5537945963779 L49.62867933372155,509.1976452129532 M74.7864993245907,608.938421929188 L74.15827563703368,523.5537945963779 M50.297756689021696,594.5585779496591 L49.62867933372155,509.1976452129532 M198.62344312203243,451.93372985938134 L174.09283043862723,437.65778675799373 M74.15827563703368,523.5537945963779 L198.62344312203243,451.93372985938134 M49.62867933372155,509.1976452129532 L174.09283043862723,437.65778675799373 M198.62344312203243,451.93372985938134 L199.04129940309033,537.1998796557632 M174.09283043862723,437.65778675799373 L174.55154549559063,522.9002399099552 M128.28159062319963,535.2672318175223 L103.77195168064975,520.9339364542652 M95.41381009457746,554.2118003389828 L70.90445964388613,539.8572952023001 M128.28159062319963,535.2672318175223 L127.77606999980094,531.0491078220982 M127.77606999980094,531.0491078220982 L126.34524197360122,527.6253862345416 M126.34524197360122,527.6253862345416 L124.07191349596036,525.1952197350938 M124.07191349596036,525.1952197350938 L121.08786485266836,523.9001994100129 M121.08786485266836,523.9001994100129 L117.56634174473947,523.8160108603956 M117.56634174473947,523.8160108603956 L113.71190974640018,524.9479877234864 M113.71190974640018,524.9479877234864 L109.74864811591385,527.2306919024936 M109.74864811591385,527.2306919024936 L105.90721276639749,530.531558889345 M105.90721276639749,530.531558889345 L102.4111573937177,534.6586942266078 M102.4111573937177,534.6586942266078 L99.46397442495402,539.371999102463 M99.46397442495402,539.371999102463 L97.23725752759668,544.3971185576636 M97.23725752759668,544.3971185576636 L95.8605396972028,549.441572000256 M95.8605396972028,549.441572000256 L95.41381009457746,554.2118003389828 M103.77195168064975,520.9339364542652 L103.26428381317845,516.7167525200871 M103.26428381317845,516.7167525200871 L101.8314410138372,513.2933012679532 M101.8314410138372,513.2933012679532 L99.55634751432274,510.86271934998905 M99.55634751432274,510.86271934998905 L96.57088643734664,509.56662153600365 M96.57088643734664,509.56662153600365 L93.04838584508678,509.4807555956933 M93.04838584508678,509.4807555956933 L89.1934683395641,510.61055223967566 M89.1934683395641,510.61055223967566 L85.23024152084048,512.8906998339021 M85.23024152084048,512.8906998339021 L81.38935927188646,516.1887825002577 M81.38935927188646,516.1887825002577 L77.89434300776793,520.313067800595 M77.89434300776793,520.313067800595 L74.94862453955449,525.0236229297998 M74.94862453955449,525.0236229297998 L72.72371214516113,530.0462532362446 M72.72371214516113,530.0462532362446 L71.34903369330743,535.0886232237074 M71.34903369330743,535.0886232237074 L70.90445964388613,539.8572952023001 M95.41381009457746,554.2118003389828 L95.92286687485375,558.4303267318435 M95.92286687485375,558.4303267318435 L97.35780254356416,561.8519655669468 M97.35780254356416,561.8519655669468 L99.63486913674228,564.2780413006785 M99.63486913674228,564.2780413006785 L102.62143000408491,565.5678972643977 M102.62143000408491,565.5678972643977 L106.1436639862788,565.6470412107521 M106.1436639862788,565.6470412107521 L109.9968425893232,564.5112828070962 M109.9968425893232,564.5112828070962 L113.95717369226747,562.2269318769734 M113.95717369226747,562.2269318769734 L117.79467278291548,558.9269302092814 M117.79467278291548,558.9269302092814 L121.28668786347612,554.8029685773843 M121.28668786347612,554.8029685773843 L124.23065212409699,550.0944310702589 M124.23065212409699,550.0944310702589 L126.45570924986163,545.0745702651197 M126.45570924986163,545.0745702651197 L127.83270647019566,540.0346647782599 M127.83270647019566,540.0346647782599 L128.28159062319963,535.2672318175223 M70.90445964388613,539.8572952023001 L71.41566282049945,544.07488290422 M71.41566282049945,544.07488290422 L72.85261106204814,547.4962551393764 M72.85261106204814,547.4962551393764 L75.13143962829355,549.9227515365151 M75.13143962829355,549.9227515365151 L78.1194097291467,551.2136905426739 M78.1194097291467,551.2136905426739 L81.64261858216508,551.2945164667849 M81.64261858216508,551.2945164667849 L85.49628125835875,550.1609408554425 M85.49628125835875,550.1609408554425 L89.45657762610495,547.8791464784372 M89.45657762610495,547.8791464784372 L93.29352518581305,544.5819265019625 M93.29352518581305,544.5819265019625 L96.78450385830672,540.4608102839513 M96.78450385830672,540.4608102839513 L99.72700683701083,535.755016962305 M99.72700683701083,535.755016962305 L101.95026245431853,530.7376400834851 M101.95026245431853,530.7376400834851 L103.32522238179615,525.699814363682 M103.32522238179615,525.699814363682 L103.77195168064975,520.9339364542652" stroke="black"  stroke-width="4"  fill="red"/></svg>