<svg viewBox="0 0 800 800" xmlns="http://www.w3.org/2000/svg"><path d="M97.80939326217805,538.6192071556196 L97.56658778796168,502.17364824191054 M178.03419290469893,534.4343111010425 L177.84522734465327,497.99151769455557 M97.80939326217805,538.6192071556196 L109.8184740374993,534.2211917006103 M109.8184740374993,534.2211917006103 L123.02283875715108,531.214354185085 M123.02283875715108,531.214354185085 L136.94839593409824,529.7060867061932 M136.94839593409824,529.7060867061932 L151.09543733765906,529.7502780960078 M151.09543733765906,529.7502780960078 L164.95649686437696,531.3453362916372 M164.95649686437696,531.3453362916372 L178.03419290469893,534.4343111010425 M97.56658778796168,502.17364824191054 L109.58376140775488,497.77853915287506 M109.58376140775488,497.77853915287506 L122.7970063850102,494.77368920804474 M122.7970063850102,494.77368920804474 L136.73191357584227,493.26641888624357 M136.73191357584227,493.26641888624357 L150.88844072459165,493.31058105833233 M150.88844072459165,493.31058105833233 L164.75878306066474,494.9045847239804 M164.75878306066474,494.9045847239804 L177.84522734465327,497.99151769455557 M181.2734025213899,532.5653984986194 L181.08662209425984,496.12384040358296 M178.03419290469893,534.4343111010425 L181.2734025213899,532.5653984986194 M177.84522734465327,497.99151769455557 L181.08662209425984,496.12384040358296 M197.31118090381133,360.1499265948448 L197.13626449592712,323.8230668294315 M181.2734025213899,532.5653984986194 L166.57137643800925,520.737725198892 M166.57137643800925,520.737725198892 L154.2793663815587,508.02823417710033 M154.2793663815587,508.02823417710033 L144.55125169587467,494.6007408384936 M144.55125169587467,494.6007408384936 L137.50757973422867,480.6278117607434 M137.50757973422867,480.6278117607434 L133.23409138993685,466.2884958821629 M133.23409138993685,466.2884958821629 L131.78084635323648,451.7659913070672 M131.78084635323648,451.7659913070672 L133.1618549476495,437.24520611529164 M133.1618549476495,437.24520611529164 L137.35508833569736,422.9105002103435 M137.35508833569736,422.9105002103435 L144.30300685506091,408.94323204106894 M144.30300685506091,408.94323204106894 L153.91344500411537,395.5196305883386 M153.91344500411537,395.5196305883386 L166.06105000702135,382.8084944715864 M166.06105000702135,382.8084944715864 L180.58903503821375,370.9692340932152 M180.58903503821375,370.9692340932152 L197.31118090381133,360.1499265948448 M181.08662209425984,496.12384040358296 L166.37482175269793,484.3039889086338 M166.37482175269793,484.3039889086338 L154.07466733304054,471.60291048173315 M154.07466733304054,471.60291048173315 L144.340138507123,458.18431358271204 M144.340138507123,458.18431358271204 L137.29185993361762,444.22065169471904 M137.29185993361762,444.22065169471904 L133.01562595654968,429.8908559377978 M133.01562595654968,429.8908559377978 L131.56152545943792,415.3780033639369 M131.56152545943792,415.3780033639369 L132.94357365700404,400.8668793513222 M132.94357365700404,400.8668793513222 L137.13972251636903,386.5417209430902 M137.13972251636903,386.5417209430902 L144.0923896551352,372.5837652159137 M144.0923896551352,372.5837652159137 L153.70934411323208,359.1691227225934 M153.70934411323208,359.1691227225934 L165.86514605487724,346.46647819301415 M165.86514605487724,346.46647819301415 L180.40290130874547,334.63513406421805 M180.40290130874547,334.63513406421805 L197.13626449592712,323.8230668294315 M303.68241934015606,299.1431717610768 L303.57861993880033,262.857244853175 M197.31118090381133,360.1499265948448 L303.68241934015606,299.1431717610768 M197.13626449592712,323.8230668294315 L303.57861993880033,262.857244853175 M600.0518532889088,290.944627731023 L600.1450771899449,254.66421557161186 M303.68241934015606,299.1431717610768 L322.4413339813228,289.6094683706458 M322.4413339813228,289.6094683706458 L342.9272113637728,281.35337107231214 M342.9272113637728,281.35337107231214 L364.88116270400667,274.4774374966418 M364.88116270400667,274.4774374966418 L388.02649302634177,269.0669152812588 M388.02649302634177,269.0669152812588 L412.0721591693185,265.18882206968215 M412.0721591693185,265.18882206968215 L436.7162663489608,262.8911122645737 M436.7162663489608,262.8911122645737 L461.6497473829605,262.2022023932641 M461.6497473829605,262.2022023932641 L486.56000997361565,263.13059258399824 M486.56000997361565,263.13059258399824 L511.1347944281582,265.6648218258138 M511.1347944281582,265.6648218258138 L535.0658483533942,269.77355602478707 M535.0658483533942,269.77355602478707 L558.052661647358,275.4059643459647 M558.052661647358,275.4059643459647 L579.8060763317809,282.492283746715 M579.8060763317809,282.492283746715 L600.0518532889088,290.944627731023 M303.57861993880033,262.857244853175 L322.35003918327897,253.3299546173306 M322.35003918327897,253.3299546173306 L342.8495561692676,245.07941464472287 M342.8495561692676,245.07941464472287 L364.8181107766038,238.20811192828097 M364.8181107766038,238.20811192828097 L387.97882559934726,232.80123526185088 M387.97882559934726,232.80123526185088 L412.0404661497075,228.925755947344 M412.0404661497075,228.925755947344 L436.700939612102,226.62959518278348 M436.700939612102,226.62959518278348 L461.65097635354977,225.94114980225262 M461.65097635354977,225.94114980225262 L486.57777945422936,226.8689140403734 M486.57777945422936,226.8689140403734 L511.16888480645855,229.40143483237074 M511.16888480645855,229.40143483237074 L535.1158380671687,233.50739979745896 M535.1158380671687,233.50739979745896 L558.1179319574183,239.13601329070744 M558.1179319574183,239.13601329070744 L579.8858183383892,246.21756049841156 M579.8858183383892,246.21756049841156 L600.1450771899449,254.66421557161186 M603.2337218626021,289.1087989393362 L603.3290542472841,252.82962210048572 M600.0518532889088,290.944627731023 L603.2337218626021,289.1087989393362 M600.1450771899449,254.66421557161186 L603.3290542472841,252.82962210048572 M610.1251534280676,243.4842764422556 L610.2248980588499,207.23585312023587 M603.2337218626021,289.1087989393362 L597.9207285815044,281.6368323805561 M597.9207285815044,281.6368323805561 L595.1577183115241,273.7307272943239 M595.1577183115241,273.7307272943239 L595.0421075217506,265.6759329291824 M595.0421075217506,265.6759329291824 L597.5757559826493,257.7627446722758 M597.5757559826493,257.7627446722758 L602.6651278599851,250.2758966216067 M602.6651278599851,250.2758966216067 L610.1251534280676,243.4842764422556 M603.3290542472841,252.82962210048572 L598.0125044552734,245.36268509482102 M598.0125044552734,245.36268509482102 L595.2476320636732,237.46190476566687 M595.2476320636732,237.46190476566687 L595.1319177838277,229.41253844588454 M595.1319177838277,229.41253844588454 L597.6672220345588,221.50468589959695 M597.6672220345588,221.50468589959695 L602.7599463857989,214.0228889080891 M602.7599463857989,214.0228889080891 L610.2248980588499,207.23585312023587 M251.56540889886153,269.1630223474235 L251.42711067762343,232.89727755965748 M610.1251534280676,243.4842764422556 L585.5756536995489,236.01930548625035 M585.5756536995489,236.01930548625035 L559.931840486594,229.91295140214552 M559.931840486594,229.91295140214552 L533.41743105162,225.21737323277182 M533.41743105162,225.21737323277182 L506.26330029662927,221.97263468371736 M506.26330029662927,221.97263468371736 L478.7055333464872,220.20642335786596 M478.7055333464872,220.20642335786596 L450.9835512374766,219.93378263714965 M450.9835512374766,219.93378263714965 L423.3381493943212,221.1570285040535 M423.3381493943212,221.1570285040535 L396.00943154949067,223.86575344433055 M396.00943154949067,223.86575344433055 L369.23495018265686,228.0368488842298 M369.23495018265686,228.0368488842298 L343.24771313036564,233.63474921375715 M343.24771313036564,233.63474921375715 L318.27422897438237,240.61162500242696 M318.27422897438237,240.61162500242696 L294.5326934219719,248.9078298145588 M294.5326934219719,248.9078298145588 L272.2310738052719,258.4522723253945 M272.2310738052719,258.4522723253945 L251.56540889886153,269.1630223474235 M610.2248980588499,207.23585312023587 L585.6590862206434,199.77592367665798 M585.6590862206434,199.77592367665798 L559.9982475138099,193.67369558302119 M559.9982475138099,193.67369558302119 L533.466245565483,188.98129140093127 M533.466245565483,188.98129140093127 L506.29410594230933,185.73874677114839 M506.29410594230933,185.73874677114839 L478.7180675509597,183.9737298798459 M478.7180675509597,183.9737298798459 L450.9777072041345,183.70127355129017 M450.9777072041345,183.70127355129017 L423.31397692496773,184.92369214195526 M423.31397692496773,184.92369214195526 L395.96713662741104,187.63058544313571 M395.96713662741104,187.63058544313571 L369.17489345231127,191.79886109163914 M369.17489345231127,191.79886109163914 L343.1704071788615,197.39297840315373 M343.1704071788615,197.39297840315373 L318.18033443033096,204.36514141976676 M318.18033443033096,204.36514141976676 L294.42301395052186,212.65574537420474 M294.42301395052186,212.65574537420474 L272.10654991427714,222.1937484955914 M272.10654991427714,222.1937484955914 L251.42711067762343,232.89727755965748 M145.3850621911726,329.9261591842168 L145.1757761406858,293.6195554733729 M251.56540889886153,269.1630223474235 L145.3850621911726,329.9261591842168 M251.42711067762343,232.89727755965748 L145.1757761406858,293.6195554733729 M145.3850621911726,329.9261591842168 L126.55594567283276,341.8202611837974 M126.55594567283276,341.8202611837974 L109.72177134391518,354.68528870048607 M109.72177134391518,354.68528870048607 L95.03277487633676,368.4099564986926 M95.03277487633676,368.4099564986926 L82.62102910938154,382.875216240706 M82.62102910938154,382.875216240706 L72.59917350640637,397.95514752189376 M72.59917350640637,397.95514752189376 L65.05937645365378,413.5180976952713 M65.05937645365378,413.5180976952713 L60.07228944748738,429.4277222750986 M60.07228944748738,429.4277222750986 L57.68643577774549,445.5441479637056 M57.68643577774549,445.5441479637056 L57.92751049482297,461.7251974386698 M57.92751049482297,461.7251974386698 L60.798040125338844,477.8275964097278 M60.798040125338844,477.8275964097278 L66.27719783917235,493.70827397299456 M66.27719783917235,493.70827397299456 L74.32076298068802,509.2256521035041 M74.32076298068802,509.2256521035041 L84.86146381388426,524.2408942050847 M84.86146381388426,524.2408942050847 L97.80939326217805,538.6192071556196 M145.1757761406858,293.6195554733729 L126.33402910173766,305.50568067683776 M126.33402910173766,305.50568067683776 L109.48853402125803,318.36208803982845 M109.48853402125803,318.36208803982845 L94.78962839583056,332.0775686169112 M94.78962839583056,332.0775686169112 L82.36947548571993,346.5331553684683 M82.36947548571993,346.5331553684683 L72.34079286024087,361.6030135285616 M72.34079286024087,361.6030135285616 L64.7958139155993,377.1555796035308 M64.7958139155993,377.1555796035308 L59.805241256544605,393.05460102626944 M59.805241256544605,393.05460102626944 L57.41763484631491,409.16029836391067 M57.41763484631491,409.16029836391067 L57.65871136777133,425.3305892585791 M57.65871136777133,425.3305892585791 L60.53100356529063,441.4222946647215 M60.53100356529063,441.4222946647215 L66.01367513765041,457.2924383374727 M66.01367513765041,457.2924383374727 L74.06248009330852,472.79953548264643 M74.06248009330852,472.79953548264643 L84.61010558317122,487.80484050679866 M84.61010558317122,487.80484050679866 L97.56658778796168,502.17364824191054 M127.28853185556068,562.8144686610631 L127.06530245350149,526.35293758332 M132.50526893481162,560.7029351949084 L132.28555870257298,524.2427968753414 M127.28853185556068,562.8144686610631 L128.91690719162716,562.0207788393473 M128.91690719162716,562.0207788393473 L130.66052873137625,561.3150331159582 M130.66052873137625,561.3150331159582 L132.50526893481162,560.7029351949084 M127.06530245350149,526.35293758332 L128.69477742798347,525.5597712503185 M128.69477742798347,525.5597712503185 L130.4395751990674,524.8544910368371 M130.4395751990674,524.8544910368371 L132.28555870257298,524.2427968753414 M128.00114707756984,563.3016586793268 L127.77839212558155,526.8398062841769 M132.50526893481162,560.7029351949084 L128.00114707756984,563.3016586793268 M132.28555870257298,524.2427968753414 L127.77839212558155,526.8398062841769 M128.00114707756984,563.3016586793268 L127.7632645904713,563.1394294000892 M127.7632645904713,563.1394294000892 L127.52571267165172,562.9770405211606 M127.52571267165172,562.9770405211606 L127.28853185556068,562.8144686610631 M127.77839212558155,526.8398062841769 L127.54035125420756,526.67768399905 M127.54035125420756,526.67768399905 L127.30264117623028,526.5154022207821 M127.30264117623028,526.5154022207821 L127.06530245350149,526.35293758332 M647.8653816502065,263.35786543558555 L647.9902592917999,227.09603366321102 M651.4393367773145,260.40738114871914 L651.5665736970253,224.1475388075626 M647.8653816502065,263.35786543558555 L648.9002296420218,262.313472770807 M648.9002296420218,262.313472770807 L650.0947768151086,261.3273174133182 M650.0947768151086,261.3273174133182 L651.4393367773145,260.40738114871914 M647.9902592917999,227.09603366321102 L649.0257895911126,226.05234515525305 M649.0257895911126,226.05234515525305 L650.2211253236111,225.06685473847404 M650.2211253236111,225.06685473847404 L651.5665736970253,224.1475388075626 M652.2714901023508,260.8156923167406 L652.3992814439111,224.5555746370794 M651.4393367773145,260.40738114871914 L651.7170184831836,260.5432831165282 M651.7170184831836,260.5432831165282 L651.9943897087398,260.6793944620265 M651.9943897087398,260.6793944620265 L652.2714901023508,260.8156923167406 M651.5665736970253,224.1475388075626 L651.8444404047438,224.28334913101455 M651.8444404047438,224.28334913101455 L652.1219964288439,224.4193686918696 M652.1219964288439,224.4193686918696 L652.3992814439111,224.5555746370794 M652.2714901023508,260.8156923167406 L647.8653816502065,263.35786543558555 M652.3992814439111,224.5555746370794 L647.9902592917999,227.09603366321102" stroke="black"  stroke-width="4"  fill="red"/>
<path d="M720.486354774572,239.50698910570063 L720.6593009427289,203.26125152882176 M616.5577737239938,299.51018335174774 L616.6620017446618,263.22400965052697 M720.486354774572,239.50698910570063 L729.7199918994221,245.92379049870814 M729.7199918994221,245.92379049870814 L736.6101219707215,253.24838335137548 M736.6101219707215,253.24838335137548 L740.8905565002227,261.2005084208287 M740.8905565002227,261.2005084208287 L742.3946769670604,269.47539862128724 M742.3946769670604,269.47539862128724 L741.0621814570297,277.75533847012764 M741.0621814570297,277.75533847012764 L736.9417580019277,285.7218482850532 M736.9417580019277,285.7218482850532 L730.1895977763456,293.06797337236287 M730.1895977763456,293.06797337236287 L721.0637357804086,299.51018335174774 M721.0637357804086,299.51018335174774 L709.914364275021,304.79945392194907 M709.914364275021,304.79945392194907 L697.1704434748964,308.73106686882863 M697.1704434748964,308.73106686882863 L683.3231273935621,311.1527055352618 M683.3231273935621,311.1527055352618 L668.9066742480437,311.9704913694122 M668.9066742480437,311.9704913694122 L654.4776354307525,311.1527026652897 M654.4776354307525,311.1527026652897 L640.59301959747,308.7310661514636 M640.59301959747,308.7310661514636 L627.7885651571808,304.7994517704768 M627.7885651571808,304.7994517704768 L616.5577737239938,299.51018335174774 M720.6593009427289,203.26125152882176 L729.8991063198804,209.67372022768592 M729.8991063198804,209.67372022768592 L736.7938582308906,216.99336989862203 M736.7938582308906,216.99336989862203 L741.0771887160524,224.94013125367536 M741.0771887160524,224.94013125367536 L742.582365153685,233.2094433204018 M742.582365153685,233.2094433204018 L741.2490417239413,241.4838049859482 M741.2490417239413,241.4838049859482 L737.1259349249132,249.44495094225988 M737.1259349249132,249.44495094225988 L730.3693361865899,256.78613262938245 M730.3693361865899,256.78613262938245 L721.2374491481886,263.22400965052697 M721.2374491481886,263.22400965052697 L710.0806969147159,268.5097242351177 M710.0806969147159,268.5097242351177 L697.3283239802565,272.43869483909623 M697.3283239802565,272.43869483909623 L683.4718110422211,274.85870635668545 M683.4718110422211,274.85870635668545 L669.0457725665002,275.6759427685383 M669.0457725665002,275.6759427685383 L654.60713166642,274.8587034886417 M654.60713166642,274.8587034886417 L640.7132693509142,272.4386941222131 M640.7132693509142,272.4386941222131 L627.9002822327882,268.5097220850916 M627.9002822327882,268.5097220850916 L616.6620017446618,263.22400965052697 M616.5577737239938,299.51018335174774 L607.3327311963455,293.06798125428014 M607.3327311963455,293.06798125428014 L600.4674674753949,285.72185473040463 M600.4674674753949,285.72185473040463 L596.2243952642538,277.75533560720856 M596.2243952642538,277.75533560720856 L594.7644167760304,269.47539862128724 M594.7644167760304,269.47539862128724 L596.1411419645219,261.20051128025483 M596.1411419645219,261.20051128025483 L600.2991393184342,253.24838978131072 M600.2991393184342,253.24838978131072 L607.0764974285925,245.92379835327128 M607.0764974285925,245.92379835327128 L616.211345120492,239.50698910570063 M616.211345120492,239.50698910570063 L627.3521220999203,234.24311929798938 M627.3521220999203,234.24311929798938 L640.0711765897114,230.33304007312665 M640.0711765897114,230.33304007312665 L653.8811402538308,227.92578977029592 M653.8811402538308,227.92578977029592 L668.2534414095818,227.1130564652851 M668.2534414095818,227.1130564652851 L682.6382603597528,227.92578691788412 M682.6382603597528,227.92578691788412 L696.4852923101326,230.3330407863564 M696.4852923101326,230.3330407863564 L709.2645489084584,234.2431214382965 M709.2645489084584,234.2431214382965 L720.486354774572,239.50698910570063 M616.6620017446618,263.22400965052697 L607.4308022548796,256.7861405059972 M607.4308022548796,256.7861405059972 L600.5609496253662,249.44495738327294 M600.5609496253662,249.44495738327294 L596.3150310237389,241.4838021249574 M596.3150310237389,241.4838021249574 L594.854055199411,233.2094433204018 M594.854055199411,233.2094433204018 L596.2316671039534,224.9401341111734 M596.2316671039534,224.9401341111734 L600.3923978020432,216.99337632421907 M600.3923978020432,216.99337632421907 L607.1742280171018,209.67372807694673 M607.1742280171018,209.67372807694673 L616.315112821386,203.26125152882167 M616.315112821386,203.26125152882167 L627.4632592389602,198.0009374479576 M627.4632592389602,198.0009374479576 L640.190732932047,194.0935003466519 M640.190732932047,194.0935003466519 L654.0098438941787,191.68787704611663 M654.0098438941787,191.68787704611663 L668.3916717386234,190.87569311194477 M668.3916717386234,190.87569311194477 L682.7860339815325,191.6878741956328 M682.7860339815325,191.6878741956328 L696.6422624071781,194.09350105939964 M696.6422624071781,194.09350105939964 L709.4300180912925,198.0009395868188 M709.4300180912925,198.0009395868188 L720.6593009427289,203.26125152882176 M652.2051017569636,278.92918891602176 L652.332934422427,242.6568648820962 M684.9425845612615,260.0281944063697 L685.0920633818301,223.76860777140618 M652.2051017569636,278.92918891602176 L648.7292803725425,276.39139200724406 M648.7292803725425,276.39139200724406 L646.4079483883183,273.4521194802415 M646.4079483883183,273.4521194802415 L645.3757325715993,270.2823767858823 M645.3757325715993,270.2823767858823 L645.6921252249108,267.0665074024324 M645.6921252249108,267.0665074024324 L647.3383418670667,263.9913324738089 M647.3383418670667,263.9913324738089 L650.2182623090192,261.23545136778034 M650.2182623090192,261.23545136778034 L654.1643550268067,258.95875574210555 M654.1643550268067,258.95875574210555 L658.9472283805442,257.29332264368867 M658.9472283805442,257.29332264368867 L664.289189854166,256.3356690472423 M664.289189854166,256.3356690472423 L669.8801084985499,256.141332820981 M669.8801084985499,256.141332820981 L675.3955957410093,256.7215360410178 M675.3955957410093,256.7215360410178 L680.5154909906736,258.0426885427703 M680.5154909906736,258.0426885427703 L684.9425845612615,260.0281944063697 M652.332934422427,242.6568648820962 L648.8547919903673,240.1207771809462 M648.8547919903673,240.1207771809462 L646.5319044417536,237.18348464958544 M646.5319044417536,237.18348464958544 L645.4989885560851,234.015877677417 M645.4989885560851,234.015877677417 L645.8155767012009,230.80217559812297 M645.8155767012009,230.80217559812297 L647.4628724613212,227.7290736274174 M647.4628724613212,227.7290736274174 L650.3446923780381,224.97505063841263 M650.3446923780381,224.97505063841263 L654.293394283075,222.69989032556754 M654.293394283075,222.69989032556754 L659.0794348586658,221.03558048954974 M659.0794348586658,221.03558048954974 L664.4249378433268,220.07857285039634 M664.4249378433268,220.07857285039634 L670.0195669383526,219.88436771344516 M670.0195669383526,219.88436771344516 L675.5387185968425,220.46417956345 M675.5387185968425,220.46417956345 L680.6620198094147,221.7844409570314 M680.6620198094147,221.7844409570314 L685.0920633818301,223.76860777140618 M684.9425845612615,260.0281944063697 L688.4196948458056,262.56293061118373 M688.4196948458056,262.56293061118373 L690.7446453676744,265.4998436067485 M690.7446453676744,265.4998436067485 L691.7819804278781,268.6684684759502 M691.7819804278781,268.6684684759502 L691.4710349073001,271.8847178258363 M691.4710349073001,271.8847178258363 L689.8293454777986,274.96168346966164 M689.8293454777986,274.96168346966164 L686.9519951605449,277.7203557921003 M686.9519951605449,277.7203557921003 L683.0059267099303,280.0002037320214 M683.0059267099303,280.0002037320214 L678.2205262057771,281.6684280417524 M678.2205262057771,281.6684280417524 L672.8740650890068,282.6278723664017 M672.8740650890068,282.6278723664017 L667.2777051604564,282.822588540481 M667.2777051604564,282.822588540481 L661.7570814636857,282.2412675193677 M661.7570814636857,282.2412675193677 L656.6335313491251,280.9177554803835 M656.6335313491251,280.9177554803835 L652.2051017569636,278.92918891602176 M685.0920633818301,223.76860777140618 L688.571496410979,226.30163479978353 M688.571496410979,226.30163479978353 L690.8980072933132,229.23656782375258 M690.8980072933132,229.23656782375258 L691.9360492189713,232.4030569821553 M691.9360492189713,232.4030569821553 L691.6249154464466,235.6171390240133 M691.6249154464466,235.6171390240133 L689.982152923711,238.6920316916714 M689.982152923711,238.6920316916714 L687.1029065610533,241.44884586864117 M687.1029065610533,241.44884586864117 L683.1542289715734,243.72715846360816 M683.1542289715734,243.72715846360816 L678.3656579018894,245.39425948249578 M678.3656579018894,245.39425948249578 L673.0156493043169,246.35305783160362 M673.0156493043169,246.35305783160362 L667.4155716969273,246.54764291250092 M667.4155716969273,246.54764291250092 L661.8912767533055,245.96671327281064 M661.8912767533055,245.96671327281064 L656.7643158073321,244.64409236604246 M656.7643158073321,244.64409236604246 L652.332934422427,242.6568648820962" stroke="black"  stroke-width="4"  fill="red"/>
<path d="M196.198596737298,542.2046673413462 L196.02176294890216,505.75673972776406 M89.93198508584601,603.5577241841814 L89.68330724257828,567.0693617643225 M196.198596737298,542.2046673413462 L205.40985857216694,548.7656793814317 M205.40985857216694,548.7656793814317 L212.23370669232347,556.2549269527539 M212.23370669232347,556.2549269527539 L216.40644406310952,564.385864711817 M216.40644406310952,564.385864711817 L217.76552683122668,572.8468819725832 M217.76552683122668,572.8468819725832 L216.25616484963356,581.3131202682498 M216.25616484963356,581.3131202682498 L211.93379200217316,589.4589309429894 M211.93379200217316,589.4589309429894 L204.9623278178947,596.9704414365251 M204.9623278178947,596.9704414365251 L195.60822667256772,603.5577241841814 M195.60822667256772,603.5577241841814 L184.23046908747153,608.9661305336118 M184.23046908747153,608.9661305336118 L171.26683183631266,612.9863146043465 M171.26683183631266,612.9863146043465 L157.2169686398493,615.4625142794725 M157.2169686398493,615.4625142794725 L142.62298545746347,616.2987264487098 M142.62298545746347,616.2987264487098 L128.04830869125266,615.4625172141097 M128.04830869125266,615.4625172141097 L114.05564493173432,612.9863021343872 M114.05564493173432,612.9863021343872 L101.18482704512371,608.9661283336749 M101.18482704512371,608.9661283336749 L89.93198508584601,603.5577241841814 M196.02176294890216,505.75673972776406 L205.2391631740132,512.3134189273402 M205.2391631740132,512.3134189273402 L212.06754467293888,519.7977232338629 M212.06754467293888,519.7977232338629 L216.2430342273664,527.9232972897885 M216.2430342273664,527.9232972897885 L217.6029792799788,536.3787365407396 M217.6029792799788,536.3787365407396 L216.0925530969361,544.8393968917098 M216.0925530969361,544.8393968917098 L211.76722700610634,552.9798440456805 M211.76722700610634,552.9798440456805 L204.79103109903144,560.4864115447289 M204.79103109903144,560.4864115447289 L195.4305996416622,567.0693617643225 M195.4305996416622,567.0693617643225 L184.04515576491173,572.4742125333285 M184.04515576491173,572.4742125333285 L171.0727723442019,576.4917545927352 M171.0727723442019,576.4917545927352 L157.01344119651526,578.9663273361475 M157.01344119651526,578.9663273361475 L142.40963507677066,579.8019901586337 M142.40963507677066,579.8019901586337 L127.82516135810499,578.9663302688566 M127.82516135810499,578.9663302688566 L113.82310660923628,576.4917421309696 M113.82310660923628,576.4917421309696 L100.94366745719799,572.4742103348377 M100.94366745719799,572.4742103348377 L89.68330724257828,567.0693617643225 M89.93198508584601,603.5577241841814 L80.73001438629262,596.9704494959146 M80.73001438629262,596.9704494959146 L73.9320389161453,589.4589258170936 M73.9320389161453,589.4589258170936 L69.79775895456584,581.3131231955946 M69.79775895456584,581.3131231955946 L68.4839214479033,572.8468819725832 M68.4839214479033,572.8468819725832 L70.03840803002691,564.3858676355502 M70.03840803002691,564.3858676355502 L74.398915024654,556.2549335272521 M74.398915024654,556.2549335272521 L81.39571737625528,548.7656874125389 M81.39571737625528,548.7656874125389 L90.75850317646837,542.2046673413462 M90.75850317646837,542.2046673413462 L102.12696970023649,536.8225237006495 M102.12696970023649,536.8225237006495 L115.06475465277396,532.824604074949 M115.06475465277396,532.824604074949 L129.0761400986308,530.3632810168372 M129.0761400986308,530.3632810168372 L143.62487793360452,529.5322928288422 M143.62487793360452,529.5322928288422 L158.15442997614718,530.363278100356 M158.15442997614718,530.363278100356 L172.10897984402746,532.8246048042004 M172.10897984402746,532.8246048042004 L184.9544392984265,536.8225258890425 M184.9544392984265,536.8225258890425 L196.198596737298,542.2046673413462 M89.68330724257828,567.0693617643225 L80.47521084069501,560.4864195988164 M80.47521084069501,560.4864195988164 L73.67273691459218,552.9798389231587 M73.67273691459218,552.9798389231587 L69.53575657115539,544.8393998171264 M69.53575657115539,544.8393998171264 L68.22111761365784,536.3787365407396 M68.22111761365784,536.3787365407396 L69.77672898763592,527.9233002115934 M69.77672898763592,527.9233002115934 L74.14024034849785,519.797729804023 M74.14024034849785,519.797729804023 L81.14180829531068,512.3134269531449 M81.14180829531068,512.3134269531449 L90.51093587271424,505.75673972776406 M90.51093587271424,505.75673972776406 L101.88707600046354,500.37815198527494 M101.88707600046354,500.37815198527494 L114.83357221360939,496.3828746403329 M114.83357221360939,496.3828746403329 L128.85437379504503,493.92317869397556 M128.85437379504503,493.92317869397556 L143.41287373346074,493.0927399159562 M143.41287373346074,493.0927399159562 L157.95216213774785,493.9231757794225 M157.95216213774785,493.9231757794225 L171.91605188574195,496.3828753691023 M171.91605188574195,496.3828753691023 L184.77009871951498,500.3781541722218 M184.77009871951498,500.3781541722218 L196.02176294890216,505.75673972776406 M126.3818462992009,582.5133870007264 L126.15784725024338,546.0388731175487 M159.85580745770014,563.1871865150239 L159.6544392207585,526.7254096168851 M126.3818462992009,582.5133870007264 L122.91687080512247,579.9184810648427 M122.91687080512247,579.9184810648427 L120.6271768256417,576.9130717383139 M120.6271768256417,576.9130717383139 L119.64554211456164,573.6720145832836 M119.64554211456164,573.6720145832836 L120.02850631822099,570.3838016176906 M120.02850631822099,570.3838016176906 L121.75340780172758,567.2394563008197 M121.75340780172758,567.2394563008197 L124.71954647501394,564.4215935088638 M124.71954647501394,564.4215935088638 L128.75438119239914,562.0936982442684 M128.75438119239914,562.0936982442684 L133.6233669613589,560.3908146983686 M133.6233669613589,560.3908146983686 L139.0438175770891,559.411627489116 M139.0438175770891,559.411627489116 L144.7010508955717,559.2129215506163 M144.7010508955717,559.2129215506163 L150.26683703330997,559.8061709201418 M150.26683703330997,559.8061709201418 L155.41809886256743,561.1570312329734 M155.41809886256743,561.1570312329734 L159.85580745770014,563.1871865150239 M126.15784725024338,546.0388731175487 L122.6905653083706,543.4456762989904 M122.6905653083706,543.4456762989904 L120.39935817181333,540.442246876982 M120.39935817181333,540.442246876982 L119.41709112085465,537.2033253620712 M119.41709112085465,537.2033253620712 L119.80033990565926,533.9172796345382 M119.80033990565926,533.9172796345382 L121.5264257615978,530.7750072285538 M121.5264257615978,530.7750072285538 L124.4945791990811,527.9590025249034 M124.4945791990811,527.9590025249034 L128.53214172922657,525.6326425589867 M128.53214172922657,525.6326425589867 L133.40440979646257,523.9308822706191 M133.40440979646257,523.9308822706191 L138.8285067836623,522.9523410179596 M138.8285067836623,522.9523410179596 L144.4895391246961,522.7537661688149 M144.4895391246961,522.7537661688149 L150.05905683869747,523.3466241683612 M150.05905683869747,523.3466241683612 L155.21376649052036,524.6965933752406 M155.21376649052036,524.6965933752406 L159.6544392207585,526.7254096168851 M159.85580745770014,563.1871865150239 L163.32216148024906,565.7789278855992 M163.32216148024906,565.7789278855992 L165.61560214412802,568.7818976128058 M165.61560214412802,568.7818976128058 L166.60249340781556,572.021799010617 M166.60249340781556,572.021799010617 L166.2250913510826,575.3104048363535 M166.2250913510826,575.3104048363535 L164.5047834524999,578.4566016342084 M164.5047834524999,578.4566016342084 L161.54121742864228,581.2773503591766 M161.54121742864228,581.2773503591766 L157.5063450769599,583.6085049080531 M157.5063450769599,583.6085049080531 L152.63472001163188,585.3142743817102 M152.63472001163188,585.3142743817102 L147.20963305222125,586.2953130854056 M147.20963305222125,586.2953130854056 L141.5468285130055,586.4944118648027 M141.5468285130055,586.4944118648027 L135.97581251243014,585.9000067629448 M135.97581251243014,585.9000067629448 L130.8208603391398,584.5467068447832 M130.8208603391398,584.5467068447832 L126.3818462992009,582.5133870007264 M159.6544392207585,526.7254096168851 L163.1231015679148,529.3154418318552 M163.1231015679148,529.3154418318552 L165.4180604419891,532.3164316250312 M165.4180604419891,532.3164316250312 L166.40559111741516,535.5541973687428 M166.40559111741516,535.5541973687428 L166.02791194997815,538.8406359611711 M166.02791194997815,538.8406359611711 L164.30642583668524,541.9847598705358 M164.30642583668524,541.9847598705358 L161.34084848292176,544.8036505421074 M161.34084848292176,544.8036505421074 L157.30324824260396,547.1332698317312 M157.30324824260396,547.1332698317312 L152.42833731034034,548.8379160827661 M152.42833731034034,548.8379160827661 L146.99959773553093,549.8183088522655 M146.99959773553093,549.8183088522655 L141.3329866850279,550.0172765470599 M141.3329866850279,550.0172765470599 L135.75823209013902,549.4232628012005 M135.75823209013902,549.4232628012005 L130.59982715475394,548.07085395948 M130.59982715475394,548.07085395948 L126.15784725024338,546.0388731175487" stroke="black"  stroke-width="4"  fill="red"/></svg>